<?xml version="1.0" encoding="utf-8"?>
<!-- Generator: Adobe Illustrator 28.0.0, SVG Export Plug-In . SVG Version: 6.00 Build 0)  -->
<svg version="1.1" id="Layer_1" xmlns="http://www.w3.org/2000/svg" xmlns:xlink="http://www.w3.org/1999/xlink" x="0px" y="0px"
	 viewBox="0 0 30 30" style="enable-background:new 0 0 30 30;" xml:space="preserve">
<style type="text/css">
	.st0{fill-rule:evenodd;clip-rule:evenodd;fill:#1D9BF0;}
</style>
<path class="st0" d="M27.8,15c0,7.1-5.7,12.8-12.8,12.8C7.9,27.8,2.2,22.1,2.2,15C2.2,7.9,7.9,2.2,15,2.2C22.1,2.2,27.8,7.9,27.8,15
	z M30,15c0,8.3-6.7,15-15,15C6.7,30,0,23.3,0,15C0,6.7,6.7,0,15,0C23.3,0,30,6.7,30,15z M23.3,8.3c0,0.9-0.7,1.6-1.6,1.6
	c-0.9,0-1.6-0.7-1.6-1.6c0-0.9,0.7-1.6,1.6-1.6C22.6,6.7,23.3,7.4,23.3,8.3z M15.2,12.8l0.2-2.5l0.2-2.2c-0.7-0.1-1.5,0-2.2,0.2
	c-0.6,0.1-1.2,0.4-1.7,0.7c-1.2,0.7-2.1,1.7-2.7,2.9c-0.6,1.2-0.9,2.6-0.7,3.9s0.7,2.6,1.6,3.6c0.9,1,2,1.8,3.3,2.1
	c1.3,0.4,2.7,0.3,4-0.1c1.3-0.4,2.4-1.2,3.3-2.3c0.4-0.5,0.7-1,0.9-1.6c0.3-0.7,0.5-1.4,0.5-2.1l0,0l-2.2-0.2l-2.5-0.2L15,15
	L15.2,12.8z M19,17.5l-4.1-0.3L12.7,17l0.2-2.2l0.3-4.1c-0.2,0.1-0.3,0.1-0.4,0.2c-0.8,0.5-1.5,1.1-1.9,2c-0.4,0.8-0.6,1.8-0.5,2.7
	c0.1,0.9,0.5,1.8,1.1,2.5c0.6,0.7,1.4,1.2,2.3,1.5c0.9,0.2,1.8,0.2,2.7-0.1c0.9-0.3,1.7-0.8,2.2-1.6C18.8,17.8,18.9,17.6,19,17.5z"
	/>
</svg>
