<?xml version="1.0" encoding="utf-8"?>
<!-- Generator: Adobe Illustrator 28.0.0, SVG Export Plug-In . SVG Version: 6.00 Build 0)  -->
<svg version="1.1" id="Layer_1" xmlns="http://www.w3.org/2000/svg" xmlns:xlink="http://www.w3.org/1999/xlink" x="0px" y="0px"
	 viewBox="0 0 24 24" style="enable-background:new 0 0 24 24;" xml:space="preserve">
<style type="text/css">
	.st0{fill:none;stroke:#1D9BF0;stroke-width:2;stroke-linecap:round;stroke-linejoin:round;}
</style>
<path class="st0" d="M19,13c0.6,0,1-0.4,1-1s-0.4-1-1-1s-1,0.4-1,1S18.4,13,19,13z"/>
<path class="st0" d="M12,13c0.6,0,1-0.4,1-1s-0.4-1-1-1s-1,0.4-1,1S11.4,13,12,13z"/>
<path class="st0" d="M5,13c0.6,0,1-0.4,1-1s-0.4-1-1-1s-1,0.4-1,1S4.4,13,5,13z"/>
</svg>
