<?xml version="1.0" encoding="utf-8"?>
<!-- Generator: Adobe Illustrator 28.0.0, SVG Export Plug-In . SVG Version: 6.00 Build 0)  -->
<svg version="1.1" id="Layer_1" xmlns="http://www.w3.org/2000/svg" xmlns:xlink="http://www.w3.org/1999/xlink" x="0px" y="0px"
	 viewBox="0 0 24 24" style="enable-background:new 0 0 24 24;" xml:space="preserve">
<style type="text/css">
	.st0{fill-rule:evenodd;clip-rule:evenodd;fill:#1D9BF0;}
</style>
<path class="st0" d="M16,6.8c-0.7,0-1.2,0.6-1.2,1.2s0.6,1.2,1.2,1.2c0.7,0,1.2-0.6,1.2-1.2S16.7,6.8,16,6.8z M13.2,8
	c0-1.5,1.2-2.8,2.8-2.8s2.8,1.2,2.8,2.8s-1.2,2.8-2.8,2.8S13.2,9.5,13.2,8z"/>
<path class="st0" d="M11.9,1.2h0.1c2.3,0,4.1,0,5.5,0.2C19,1.6,20.2,2,21.1,2.9c0.9,0.9,1.3,2,1.5,3.5c0.2,1.4,0.2,3.2,0.2,5.5v0.1
	c0,2.3,0,4.1-0.2,5.5c-0.2,1.4-0.6,2.6-1.5,3.5c-0.9,0.9-2,1.3-3.5,1.5c-1.4,0.2-3.2,0.2-5.5,0.2h-0.1c-2.3,0-4.1,0-5.5-0.2
	C5,22.4,3.8,22,2.9,21.1c-0.9-0.9-1.3-2-1.5-3.5c-0.2-1.4-0.2-3.2-0.2-5.5v-0.1c0-2.3,0-4.1,0.2-5.5C1.6,5,2,3.8,2.9,2.9
	s2-1.3,3.5-1.5C7.8,1.2,9.6,1.2,11.9,1.2z M4,20c-0.6-0.6-0.9-1.3-1.1-2.6c-0.2-1.1-0.2-2.6-0.2-4.5l1.5-1.3C4.9,11,5.8,11,6.4,11.6
	l4.3,4.3c0.9,0.9,2.4,1.1,3.5,0.3l0.3-0.2c0.9-0.6,2-0.5,2.8,0.2l3.2,2.9c0,0,0.1,0.1,0.1,0.1c-0.2,0.3-0.4,0.6-0.6,0.9
	c-0.6,0.6-1.3,0.9-2.6,1.1c-1.3,0.2-3,0.2-5.4,0.2c-2.4,0-4.1,0-5.4-0.2C5.3,20.9,4.6,20.6,4,20z M6.6,2.9C5.3,3.1,4.6,3.4,4,4
	C3.4,4.6,3.1,5.3,2.9,6.6c-0.1,1.1-0.2,2.4-0.2,4.2l0.5-0.4c1.2-1.1,3-1,4.2,0.1l4.3,4.3c0.4,0.4,1.1,0.5,1.6,0.1l0.3-0.2
	c1.4-1,3.4-0.9,4.7,0.3l2.8,2.5c0,0,0-0.1,0-0.2c0.2-1.3,0.2-3,0.2-5.4c0-2.4,0-4.1-0.2-5.4c-0.2-1.3-0.5-2-1.1-2.6
	c-0.6-0.6-1.3-0.9-2.6-1.1c-1.3-0.2-3-0.2-5.4-0.2C9.6,2.8,7.9,2.8,6.6,2.9z"/>
</svg>
