<?xml version="1.0" encoding="utf-8"?>
<!-- Generator: Adobe Illustrator 28.0.0, SVG Export Plug-In . SVG Version: 6.00 Build 0)  -->
<svg version="1.1" id="Layer_1" xmlns="http://www.w3.org/2000/svg" xmlns:xlink="http://www.w3.org/1999/xlink" x="0px" y="0px"
	 viewBox="0 0 24 24" style="enable-background:new 0 0 24 24;" xml:space="preserve">
<style type="text/css">
	.st0{fill-rule:evenodd;clip-rule:evenodd;fill:#1D9BF0;}
</style>
<path class="st0" d="M14.6,4.9C14.6,4.9,14.6,4.9,14.6,4.9l3.6,3.2c0.7,0.6,1.2,1.1,1.6,1.5c0.4,0.5,0.7,1,0.7,1.6s-0.3,1.1-0.7,1.6
	c-0.4,0.4-0.9,0.9-1.6,1.5l-3.6,3.2c0,0,0,0,0,0c-0.3,0.3-0.6,0.5-0.8,0.6c-0.2,0.2-0.6,0.4-1.1,0.2c-0.5-0.2-0.6-0.7-0.6-0.9
	c0-0.3,0-0.6,0-1c0,0,0,0,0,0V15c-1.3,0.1-2.6,0.4-3.7,1c-1.3,0.7-2.4,1.6-3,2.7c-0.1,0.3-0.5,0.4-0.7,0.3C4.2,18.9,4,18.6,4,18.3
	c0-4.2,1.2-6.9,3-8.6c1.5-1.5,3.4-2.1,5-2.2V6.1c0,0,0,0,0,0c0-0.4,0-0.7,0-1c0-0.3,0.2-0.7,0.6-0.9c0.5-0.2,0.9,0,1.1,0.2
	C14,4.4,14.3,4.6,14.6,4.9z M13.3,5.6c0.1,0.1,0.2,0.2,0.4,0.3l3.5,3.1c0.7,0.6,1.2,1.1,1.5,1.4c0.3,0.4,0.4,0.6,0.4,0.7
	S19,11.6,18.7,12c-0.3,0.4-0.8,0.8-1.5,1.4l-3.5,3.1c-0.1,0.1-0.3,0.2-0.4,0.3c0-0.1,0-0.3,0-0.5v-2.1c0-0.4-0.3-0.7-0.7-0.7
	c-1.7,0-3.5,0.4-5,1.1c-0.8,0.4-1.6,0.9-2.2,1.5c0.3-2.7,1.3-4.5,2.5-5.6c1.4-1.4,3.3-1.8,4.8-1.8c0.4,0,0.7-0.3,0.7-0.7V6.1
	C13.3,5.9,13.3,5.7,13.3,5.6z"/>
</svg>
