<?xml version="1.0" encoding="utf-8"?>
<!-- Generator: Adobe Illustrator 28.0.0, SVG Export Plug-In . SVG Version: 6.00 Build 0)  -->
<svg version="1.1" id="Layer_1" xmlns="http://www.w3.org/2000/svg" xmlns:xlink="http://www.w3.org/1999/xlink" x="0px" y="0px"
	 viewBox="0 0 21 20" style="enable-background:new 0 0 21 20;" xml:space="preserve">
<style type="text/css">
	.st0{fill:#1D9BF0;}
	.st1{fill-rule:evenodd;clip-rule:evenodd;fill:#1D9BF0;}
</style>
<path class="st0" d="M15.8,1.3C16,1,16.4,1,16.7,1.1l-0.3,0.5c0.3-0.5,0.3-0.5,0.3-0.5l0,0l0,0l0,0l0,0c0,0,0,0,0,0c0,0,0,0,0.1,0
	c0.1,0,0.1,0.1,0.2,0.2c0.2,0.2,0.4,0.4,0.7,0.7c0.5,0.6,1,1.6,1,2.9s-0.5,2.3-1,2.9c-0.2,0.3-0.5,0.5-0.7,0.7
	c-0.1,0.1-0.2,0.1-0.2,0.2c0,0-0.1,0-0.1,0c0,0,0,0,0,0l0,0l0,0l0,0c0,0,0,0-0.3-0.5l0.3,0.5C16.4,9,16,9,15.8,8.7
	C15.6,8.4,15.7,8,16,7.8l0,0c0,0,0,0,0,0c0,0,0.1-0.1,0.1-0.1c0.1-0.1,0.3-0.3,0.5-0.5C17,6.7,17.4,6,17.4,5c0-1-0.4-1.7-0.7-2.2
	c-0.2-0.2-0.4-0.4-0.5-0.5c-0.1-0.1-0.1-0.1-0.1-0.1c0,0,0,0,0,0l0,0C15.7,2,15.6,1.6,15.8,1.3z"/>
<path class="st1" d="M8.8,1c-2.2,0-4,1.8-4,4c0,2.2,1.8,4,4,4c2.2,0,4-1.8,4-4C12.8,2.8,11,1,8.8,1z M6.1,5c0-1.5,1.2-2.7,2.7-2.7
	s2.7,1.2,2.7,2.7s-1.2,2.7-2.7,2.7S6.1,6.5,6.1,5z"/>
<path class="st1" d="M8.8,10.2c-1.7,0-3.3,0.4-4.4,1.1c-1.1,0.7-2,1.7-2,2.9c0,1.2,0.9,2.2,2,2.9c1.2,0.7,2.7,1.1,4.4,1.1
	c1.7,0,3.3-0.4,4.4-1.1c1.1-0.7,2-1.7,2-2.9c0-1.2-0.9-2.2-2-2.9C12.1,10.6,10.5,10.2,8.8,10.2z M3.6,14.2c0-0.6,0.4-1.3,1.4-1.8
	c0.9-0.5,2.3-0.9,3.8-0.9c1.5,0,2.9,0.4,3.8,0.9c1,0.6,1.4,1.2,1.4,1.8c0,0.6-0.4,1.3-1.4,1.8c-0.9,0.5-2.3,0.9-3.8,0.9
	C7.3,16.9,6,16.5,5,16C4.1,15.4,3.6,14.8,3.6,14.2z"/>
<path class="st0" d="M15,2.8c-0.3-0.2-0.7-0.1-0.9,0.2l0.2,0.9l0,0c0,0,0,0,0.1,0c0,0,0.1,0.1,0.2,0.2c0.1,0.2,0.3,0.5,0.3,0.9
	s-0.1,0.7-0.3,0.9C14.5,6,14.4,6,14.4,6.1c0,0,0,0-0.1,0l0,0C14,6.3,14,6.7,14.1,7c0.2,0.3,0.6,0.4,0.9,0.2l-0.3-0.5
	C15,7.2,15,7.2,15,7.2l0,0l0,0l0,0l0,0l0,0c0,0,0,0,0,0c0,0,0.1-0.1,0.1-0.1c0.1-0.1,0.2-0.2,0.4-0.4c0.3-0.4,0.5-0.9,0.5-1.7
	s-0.3-1.3-0.5-1.7c-0.1-0.2-0.3-0.3-0.4-0.4C15.1,2.9,15.1,2.9,15,2.8C15,2.8,15,2.8,15,2.8L15,2.8L15,2.8L15,2.8L15,2.8
	c0,0,0,0-0.3,0.5L15,2.8z"/>
</svg>
