<?xml version="1.0" encoding="utf-8"?>
<!-- Generator: Adobe Illustrator 28.0.0, SVG Export Plug-In . SVG Version: 6.00 Build 0)  -->
<svg version="1.1" id="Layer_1" xmlns="http://www.w3.org/2000/svg" xmlns:xlink="http://www.w3.org/1999/xlink" x="0px" y="0px"
	 viewBox="0 0 24 24" style="enable-background:new 0 0 24 24;" xml:space="preserve">
<style type="text/css">
	.st0{fill-rule:evenodd;clip-rule:evenodd;fill:#1D9BF0;}
</style>
<path class="st0" d="M17.2,5.2c-0.8,0.1-2,0.5-3.5,1l-3.6,1.2c-1.3,0.4-2.2,0.7-2.8,1C6.6,8.7,6.4,8.9,6.3,9C6,9.5,6,10,6.3,10.4
	c0.1,0.1,0.3,0.3,1,0.6c0.7,0.3,1.6,0.6,2.8,1c0,0,0,0,0.1,0c0.3,0.1,0.6,0.2,0.8,0.4c0.2,0.1,0.4,0.3,0.6,0.6
	c0.2,0.2,0.2,0.5,0.4,0.8c0,0,0,0,0,0.1c0.4,1.3,0.7,2.2,1,2.8c0.3,0.7,0.5,0.9,0.6,1c0.4,0.2,0.9,0.2,1.3,0c0.1-0.1,0.3-0.3,0.6-1
	c0.3-0.7,0.6-1.6,1-2.8l1.2-3.6c0.5-1.6,0.9-2.7,1-3.5c0.1-0.8,0-1.2-0.2-1.4C18.4,5.1,18.1,5,17.2,5.2z M17.1,4.1
	C18,3.9,18.8,4,19.4,4.6C20,5.2,20.1,6,19.9,6.9c-0.2,0.9-0.6,2.1-1.1,3.7l-1.2,3.7c-0.4,1.2-0.7,2.2-1,2.9
	c-0.3,0.7-0.6,1.2-1.1,1.5c-0.8,0.4-1.7,0.4-2.4,0c-0.5-0.3-0.8-0.8-1.1-1.5c-0.3-0.7-0.6-1.7-1-2.9l0,0c-0.1-0.4-0.2-0.6-0.3-0.6
	c-0.1-0.1-0.2-0.2-0.3-0.3c-0.1-0.1-0.2-0.1-0.6-0.3l0,0c-1.2-0.4-2.2-0.7-2.9-1c-0.7-0.3-1.2-0.6-1.5-1.1c-0.4-0.8-0.4-1.7,0-2.4
	C5.6,8,6.2,7.7,6.9,7.4c0.7-0.3,1.7-0.6,2.9-1l3.7-1.2C14.9,4.6,16.1,4.2,17.1,4.1z M16.9,7.1c0.2,0.2,0.2,0.6,0,0.8L14,10.8
	c-0.2,0.2-0.6,0.2-0.8,0c-0.2-0.2-0.2-0.6,0-0.8l2.9-2.9C16.4,6.9,16.7,6.9,16.9,7.1z"/>
</svg>
