<?xml version="1.0" encoding="utf-8"?>
<!-- Generator: Adobe Illustrator 28.0.0, SVG Export Plug-In . SVG Version: 6.00 Build 0)  -->
<svg version="1.1" id="Layer_1" xmlns="http://www.w3.org/2000/svg" xmlns:xlink="http://www.w3.org/1999/xlink" x="0px" y="0px"
	 viewBox="0 0 21 20" style="enable-background:new 0 0 21 20;" xml:space="preserve">
<style type="text/css">
	.st0{fill:none;stroke:#1D9BF0;stroke-width:1.5;}
	.st1{fill:none;stroke:#1D9BF0;stroke-width:1.5;stroke-linecap:round;}
</style>
<path class="st0" d="M4.4,13.4c-1.3-1.3-1.9-1.9-2.2-2.8C2,9.8,2.2,9,2.6,7.2l0.2-1c0.3-1.5,0.5-2.2,1-2.8s1.3-0.7,2.8-1l1-0.2
	c1.8-0.4,2.7-0.6,3.5-0.4s1.5,0.9,2.8,2.2l1.5,1.5c2.2,2.2,3.4,3.4,3.4,4.8c0,1.4-1.1,2.5-3.4,4.8c-2.2,2.2-3.4,3.4-4.8,3.4
	c-1.4,0-2.5-1.1-4.8-3.4L4.4,13.4z"/>
<circle class="st0" cx="7.7" cy="7.4" r="1.7"/>
<path class="st1" d="M10.1,15.4l5.8-5.8"/>
</svg>
